<?xml version="1.0" encoding="UTF-8" standalone="no"?>
<!DOCTYPE svg PUBLIC "-//W3C//DTD SVG 20010904//EN"
              "http://www.w3.org/TR/2001/REC-SVG-20010904/DTD/svg10.dtd">

<svg xmlns="http://www.w3.org/2000/svg"
     width="14.2222in" height="10.6667in"
     viewBox="0 0 1024 768">
  <path id="Selection"
        fill="none" stroke="black" stroke-width="1"
        d="M 507.04,228.00
           C 507.04,228.00 529.00,249.91 529.00,249.91
             529.00,249.91 548.00,266.85 548.00,266.85
             548.00,266.85 559.00,278.00 559.00,278.00
             547.97,278.00 540.84,277.28 530.00,280.75
             503.99,289.06 481.33,314.90 481.00,343.00
             480.89,352.54 481.10,358.82 484.44,368.00
             484.44,368.00 493.00,387.00 493.00,387.00
             485.42,387.17 478.02,389.42 471.00,392.20
             438.30,405.16 413.42,438.35 413.00,474.00
             412.83,489.12 416.35,503.55 423.26,517.00
             423.26,517.00 434.00,535.00 434.00,535.00
             418.53,529.08 396.64,505.68 387.34,492.00
             360.76,452.88 355.50,398.60 376.75,356.00
             383.01,343.45 389.47,333.68 400.00,324.17
             410.71,314.49 423.21,306.86 436.00,300.26
             458.45,288.68 482.63,278.87 491.91,253.00
             494.40,246.06 496.15,234.37 495.99,227.00
             495.99,227.00 495.00,216.00 495.00,216.00
             495.00,216.00 507.04,228.00 507.04,228.00 Z
           M 578.71,317.30
           C 588.61,327.05 590.15,336.91 590.00,350.00
             589.82,365.11 580.56,377.51 567.00,383.69
             558.96,387.35 555.53,387.10 547.00,387.00
             516.46,386.64 500.27,352.97 513.38,327.00
             518.84,316.18 529.40,309.05 541.00,306.46
             555.04,304.52 568.30,307.03 578.71,317.30 Z
           M 640.00,358.00
           C 650.86,374.39 659.97,395.03 660.00,415.00
             660.00,415.00 660.00,427.00 660.00,427.00
             659.94,466.43 631.12,507.50 600.00,529.41
             589.47,536.83 567.58,549.03 555.00,551.00
             561.15,542.81 570.79,538.37 580.55,522.00
             595.63,496.70 597.84,466.94 585.69,440.00
             579.92,427.21 575.36,423.60 568.00,413.00
             578.13,408.53 581.33,408.43 591.00,401.10
             606.57,389.31 615.89,372.28 618.05,353.00
             618.36,350.19 618.89,347.85 618.68,345.00
             618.68,345.00 617.00,331.00 617.00,331.00
             624.75,336.57 634.60,349.85 640.00,358.00 Z
           M 536.00,433.53
           C 566.75,457.32 562.36,505.39 528.00,523.68
             517.93,529.04 509.99,529.13 499.00,529.00
             491.55,528.91 484.57,526.66 478.00,523.22
             452.72,509.98 443.61,479.77 454.46,454.00
             461.85,436.47 476.86,426.79 495.00,423.44
             509.40,421.59 524.34,424.50 536.00,433.53 Z" />
</svg>
